<svg xmlns="http://www.w3.org/2000/svg" viewBox="0 0 200 220">
  <!-- Shopping bag body -->
  <path d="M45 75 L35 190 Q35 200 47 200 L153 200 Q165 200 165 190 L155 75 Z" fill="#EFBE30" stroke="#222" stroke-width="3.5" stroke-linejoin="round"/>
  <path d="M45 75 L35 190 Q35 200 47 200 L153 200 Q165 200 165 190 L155 75 Z" fill="#F0C040"/>
  <path d="M45 75 L35 190 Q35 200 47 200 L153 200 Q165 200 165 190 L155 75 Z" fill="none" stroke="#222" stroke-width="3.5" stroke-linejoin="round"/>

  <!-- Handle -->
  <path d="M73 75 Q73 32 100 32 Q127 32 127 75" fill="none" stroke="#222" stroke-width="5" stroke-linecap="round"/>

  <!-- Subtle text/character pattern on bag -->
  <g opacity="0.35">
    <rect x="58" y="90" width="18" height="18" rx="2" fill="#C9A020"/>
    <rect x="82" y="88" width="14" height="14" rx="2" fill="#C9A020"/>
    <rect x="108" y="90" width="20" height="16" rx="2" fill="#C9A020"/>
    <rect x="134" y="92" width="14" height="14" rx="2" fill="#C9A020"/>
    <rect x="52" y="115" width="16" height="16" rx="2" fill="#C9A020"/>
    <rect x="76" y="113" width="20" height="18" rx="2" fill="#C9A020"/>
    <rect x="104" y="116" width="14" height="14" rx="2" fill="#C9A020"/>
    <rect x="126" y="112" width="18" height="18" rx="2" fill="#C9A020"/>
    <rect x="56" y="140" width="14" height="14" rx="2" fill="#C9A020"/>
    <rect x="78" y="138" width="18" height="16" rx="2" fill="#C9A020"/>
    <rect x="104" y="141" width="16" height="16" rx="2" fill="#C9A020"/>
    <rect x="128" y="139" width="14" height="14" rx="2" fill="#C9A020"/>
    <rect x="60" y="162" width="16" height="14" rx="2" fill="#C9A020"/>
    <rect x="84" y="164" width="14" height="14" rx="2" fill="#C9A020"/>
    <rect x="106" y="160" width="18" height="16" rx="2" fill="#C9A020"/>
    <rect x="132" y="163" width="12" height="12" rx="2" fill="#C9A020"/>
  </g>

  <!-- Blue swoosh ribbon - main -->
  <path d="M15 168 Q55 142 100 170 Q145 198 188 162" fill="none" stroke="#88CCE8" stroke-width="18" stroke-linecap="round"/>
  <!-- Blue swoosh outline -->
  <path d="M15 168 Q55 142 100 170 Q145 198 188 162" fill="none" stroke="#222" stroke-width="22" stroke-linecap="round" opacity="0.15"/>
  <path d="M15 168 Q55 142 100 170 Q145 198 188 162" fill="none" stroke="#8DD4F0" stroke-width="16" stroke-linecap="round"/>
  <!-- Swoosh inner highlight -->
  <path d="M22 166 Q58 144 100 168 Q142 193 182 162" fill="none" stroke="#B0E4FF" stroke-width="5" stroke-linecap="round" opacity="0.6"/>
</svg>
